<svg width="14" height="10" viewBox="0 0 14 10" fill="none" xmlns="http://www.w3.org/2000/svg">
<path d="M11.1063 0.828945C10.2701 0.445263 9.37338 0.162582 8.43583 0.000679162C8.41875 -0.00244551 8.4017 0.00536322 8.3929 0.0209811C8.27758 0.226092 8.14984 0.493676 8.06039 0.703995C7.05199 0.553028 6.04877 0.553028 5.06105 0.703995C4.97158 0.489001 4.8392 0.226092 4.72336 0.0209811C4.71456 0.00588431 4.69751 -0.00192443 4.68043 0.000679162C3.7434 0.162065 2.84671 0.444745 2.00999 0.828945C2.00275 0.832068 1.99654 0.837279 1.99242 0.844042C0.291578 3.38506 -0.174354 5.86363 0.0542167 8.31146C0.0552509 8.32344 0.0619735 8.33489 0.0712819 8.34217C1.19345 9.16627 2.28046 9.66657 3.34728 9.99818C3.36436 10.0034 3.38245 9.99714 3.39331 9.98308C3.64567 9.63846 3.87062 9.27509 4.0635 8.89295C4.07488 8.87058 4.06402 8.84402 4.04075 8.83517C3.68394 8.69982 3.34418 8.53479 3.01735 8.34738C2.9915 8.33229 2.98943 8.29531 3.01321 8.27761C3.08199 8.22607 3.15079 8.17245 3.21646 8.11831C3.22834 8.10842 3.24489 8.10634 3.25886 8.11258C5.40597 9.09287 7.73046 9.09287 9.85222 8.11258C9.86619 8.10582 9.88275 8.10791 9.89515 8.11779C9.96084 8.17193 10.0296 8.22607 10.0989 8.27761C10.1227 8.29531 10.1211 8.33229 10.0953 8.34738C9.76846 8.53843 9.4287 8.69982 9.07137 8.83466C9.04811 8.84351 9.03776 8.87058 9.04914 8.89295C9.24616 9.27455 9.47111 9.63793 9.71881 9.98256C9.72916 9.99714 9.74777 10.0034 9.76484 9.99818C10.8368 9.66657 11.9238 9.16627 13.046 8.34217C13.0558 8.33489 13.062 8.32395 13.0631 8.31198C13.3366 5.48201 12.6049 3.02378 11.1233 0.84456C11.1197 0.837279 11.1135 0.832068 11.1063 0.828945ZM4.38414 6.82099C3.73771 6.82099 3.20507 6.22752 3.20507 5.49868C3.20507 4.76984 3.72738 4.17638 4.38414 4.17638C5.04605 4.17638 5.57353 4.77505 5.56318 5.49868C5.56318 6.22752 5.04087 6.82099 4.38414 6.82099ZM8.74351 6.82099C8.0971 6.82099 7.56447 6.22752 7.56447 5.49868C7.56447 4.76984 8.08676 4.17638 8.74351 4.17638C9.40544 4.17638 9.9329 4.77505 9.92257 5.49868C9.92257 6.22752 9.40544 6.82099 8.74351 6.82099Z" fill="#7E7E7E"/>
</svg>
