<svg width="11" height="10" viewBox="0 0 11 10" fill="none" xmlns="http://www.w3.org/2000/svg">
<path d="M2.07902 4.76119C2.07901 4.70535 2.09003 4.65005 2.11146 4.59848C2.13288 4.5469 2.16428 4.50007 2.20386 4.46067C2.24344 4.42127 2.29041 4.39008 2.34208 4.36889C2.39375 4.34769 2.44909 4.33692 2.50494 4.33718L3.21107 4.33949C3.32366 4.33949 3.43164 4.38422 3.51125 4.46383C3.59086 4.54345 3.63559 4.65143 3.63559 4.76402V7.43415C3.71513 7.41059 3.81715 7.38546 3.92891 7.35924C4.00651 7.34097 4.07566 7.29704 4.12517 7.23455C4.17467 7.17206 4.20161 7.09469 4.20163 7.01497V3.7029C4.20163 3.64714 4.21261 3.59193 4.23394 3.54041C4.25527 3.4889 4.28654 3.44209 4.32597 3.40266C4.36539 3.36323 4.4122 3.33195 4.46371 3.31061C4.51522 3.28926 4.57043 3.27828 4.62619 3.27827H5.33372C5.4463 3.27829 5.55427 3.32302 5.63388 3.40263C5.71349 3.48224 5.75822 3.59021 5.75824 3.7028V6.77695C5.75824 6.77695 5.93531 6.70524 6.10792 6.6324C6.17201 6.60529 6.2267 6.5599 6.26517 6.50191C6.30364 6.44392 6.32419 6.37588 6.32425 6.30629V2.6414C6.32424 2.58566 6.33522 2.53045 6.35655 2.47895C6.37788 2.42744 6.40915 2.38064 6.44856 2.34122C6.48798 2.3018 6.53478 2.27053 6.58628 2.2492C6.63779 2.22786 6.69299 2.21688 6.74874 2.21688H7.45626C7.56885 2.21688 7.67684 2.26161 7.75646 2.34122C7.83608 2.42083 7.88081 2.52881 7.88082 2.6414V5.65924C8.49423 5.21469 9.11591 4.67998 9.60925 4.03705C9.68083 3.94372 9.72819 3.83413 9.74711 3.71805C9.76604 3.60197 9.75593 3.48301 9.7177 3.37178C9.3839 2.39896 8.75776 1.55299 7.92491 0.949545C7.09205 0.346096 6.09314 0.0146247 5.06474 0.000453291C2.2916 -0.0367993 -0.000248418 2.22693 2.39955e-05 5.0004C-0.00269889 5.87802 0.226358 6.7408 0.664033 7.5015C0.724391 7.60555 0.813189 7.69021 0.919995 7.74554C1.0268 7.80087 1.14718 7.82457 1.26699 7.81386C1.40084 7.80208 1.56749 7.78543 1.76561 7.76217C1.85184 7.75236 1.93144 7.71117 1.98927 7.64646C2.0471 7.58174 2.0791 7.49802 2.07919 7.41123V4.76119" fill="#7E7E7E"/>
<path d="M2.06363 9.04372C2.80943 9.58627 3.69078 9.91194 4.61017 9.98468C5.52957 10.0574 6.45116 9.87441 7.273 9.4559C8.09484 9.03738 8.78489 8.39968 9.2668 7.61333C9.7487 6.82699 10.0037 5.92265 10.0035 5.00039C10.0035 4.88526 9.9982 4.77143 9.9905 4.6582C8.1639 7.38234 4.79128 8.65588 2.0636 9.04383" fill="#7E7E7E"/>
</svg>
