<svg width="10" height="10" viewBox="0 0 10 10" fill="none" xmlns="http://www.w3.org/2000/svg">
<g clip-path="url(#clip0_537_2)">
<path d="M6.5625 8.75H0.3125C0.140625 8.75 0 8.89062 0 9.0625V9.6875C0 9.85938 0.140625 10 0.3125 10H6.5625C6.73438 10 6.875 9.85938 6.875 9.6875V9.0625C6.875 8.89062 6.73438 8.75 6.5625 8.75ZM9.63281 2.0957L8.05078 0.513672C7.92969 0.392578 7.73047 0.392578 7.60938 0.513672L7.38867 0.734375C7.26758 0.855469 7.26758 1.05469 7.38867 1.17578L8.125 1.91211V3.125C8.125 3.67383 8.5332 4.12695 9.0625 4.20312V7.34375C9.0625 7.60156 8.85156 7.8125 8.59375 7.8125C8.33594 7.8125 8.125 7.60156 8.125 7.34375V6.71875C8.125 5.76953 7.35547 5 6.40625 5H6.25V1.25C6.25 0.560547 5.68945 0 5 0H1.875C1.18555 0 0.625 0.560547 0.625 1.25V8.125H6.25V5.9375H6.40625C6.83789 5.9375 7.1875 6.28711 7.1875 6.71875V7.26172C7.1875 7.99805 7.71484 8.66797 8.44727 8.74414C9.28711 8.82813 10 8.16797 10 7.34375V2.98047C10 2.64844 9.86719 2.33008 9.63281 2.0957V2.0957ZM5 3.75H1.875V1.25H5V3.75Z" fill="#7E7E7E"/>
</g>
<defs>
<clipPath id="clip0_537_2">
<rect width="10" height="10" fill="white"/>
</clipPath>
</defs>
</svg>
