<svg width="11" height="10" viewBox="0 0 11 10" fill="none" xmlns="http://www.w3.org/2000/svg">
<path fill-rule="evenodd" clip-rule="evenodd" d="M5.15395 0C3.92998 0.000635048 2.74614 0.434141 1.81412 1.223C0.882106 2.01186 0.262681 3.10464 0.0666074 4.30593C-0.129466 5.50722 0.110596 6.73869 0.743872 7.78014C1.37715 8.82159 2.36234 9.6051 3.52329 9.99059C3.77941 10.0381 3.87589 9.87938 3.87589 9.74441C3.87589 9.60943 3.87076 9.2181 3.86905 8.79026C2.43476 9.1001 2.13168 8.185 2.13168 8.185C1.89776 7.59078 1.55967 7.43458 1.55967 7.43458C1.09182 7.11709 1.59468 7.12304 1.59468 7.12304C2.1129 7.15954 2.38525 7.6519 2.38525 7.6519C2.84456 8.43542 3.59159 8.20877 3.88528 8.07634C3.93138 7.74442 4.06542 7.51862 4.21312 7.39044C3.06739 7.26141 1.86361 6.82168 1.86361 4.85735C1.85651 4.34791 2.04663 3.85525 2.39464 3.4813C2.34171 3.35227 2.16498 2.83105 2.44501 2.12307C2.44501 2.12307 2.87786 1.98555 3.86308 2.64854C4.70814 2.41875 5.59975 2.41875 6.44481 2.64854C7.42918 1.98555 7.86117 2.12307 7.86117 2.12307C8.14205 2.82935 7.96533 3.35057 7.9124 3.4813C8.26151 3.85531 8.45203 4.34883 8.44428 4.85905C8.44428 6.82762 7.23794 7.26141 6.0905 7.38789C6.27491 7.54748 6.43969 7.85902 6.43969 8.3378C6.43969 9.0237 6.43371 9.57548 6.43371 9.74441C6.43371 9.88108 6.52677 10.0407 6.78801 9.99059C7.9491 9.60506 8.93439 8.8214 9.56765 7.77977C10.2009 6.73815 10.4409 5.50649 10.2446 4.30509C10.0483 3.10369 9.42853 2.0109 8.4962 1.22218C7.56388 0.433453 6.37977 0.000232523 5.15565 0H5.15395Z" fill="#7E7E7E"/>
</svg>
