<svg width="13" height="10" viewBox="0 0 13 10" fill="none" xmlns="http://www.w3.org/2000/svg">
<path d="M11.0464 2.49218C11.0542 2.60155 11.0542 2.71094 11.0542 2.82031C11.0542 6.15623 8.51516 10 3.87452 10C2.44482 10 1.1167 9.58592 -0.000488281 8.8672C0.202644 8.89062 0.397937 8.89844 0.608885 8.89844C1.78855 8.89844 2.87451 8.50001 3.7417 7.82032C2.63232 7.79688 1.70263 7.07032 1.38231 6.07031C1.53858 6.09373 1.69482 6.10936 1.85889 6.10936C2.08545 6.10936 2.31203 6.0781 2.52295 6.02344C1.36671 5.78905 0.499491 4.77343 0.499491 3.54687V3.51563C0.835416 3.70313 1.22607 3.82032 1.64011 3.83593C0.960417 3.38279 0.515122 2.60936 0.515122 1.73436C0.515122 1.26562 0.640099 0.835928 0.858863 0.460926C2.10106 1.99217 3.96825 2.99216 6.06198 3.10155C6.02293 2.91405 5.99948 2.71876 5.99948 2.52344C5.99948 1.1328 7.12449 0 8.52292 0C9.24948 0 9.90572 0.304687 10.3667 0.796875C10.937 0.687505 11.4838 0.476557 11.9682 0.187501C11.7807 0.773452 11.3823 1.26564 10.8589 1.57812C11.3667 1.52346 11.8589 1.3828 12.312 1.18751C11.9683 1.68749 11.5386 2.13278 11.0464 2.49218Z" fill="#7E7E7E"/>
</svg>
